<?xml version="1.0" encoding="UTF-8" standalone="no"?>
<!-- Created with Inkscape (http://www.inkscape.org/) -->

<svg
   width="135.73114mm"
   height="135.57014mm"
   viewBox="0 0 135.73114 135.57014"
   version="1.1"
   id="svg5"
   xml:space="preserve"
   inkscape:export-filename="whatsapp.png"
   inkscape:export-xdpi="96"
   inkscape:export-ydpi="96"
   inkscape:version="1.2.2 (b0a8486541, 2022-12-01)"
   sodipodi:docname="whatsapp_.svg"
   xmlns:inkscape="http://www.inkscape.org/namespaces/inkscape"
   xmlns:sodipodi="http://sodipodi.sourceforge.net/DTD/sodipodi-0.dtd"
   xmlns="http://www.w3.org/2000/svg"
   xmlns:svg="http://www.w3.org/2000/svg"><sodipodi:namedview
     id="namedview7"
     pagecolor="#ffffff"
     bordercolor="#111111"
     borderopacity="1"
     inkscape:showpageshadow="0"
     inkscape:pageopacity="0"
     inkscape:pagecheckerboard="1"
     inkscape:deskcolor="#d1d1d1"
     inkscape:document-units="mm"
     showgrid="false"
     inkscape:zoom="0.84096521"
     inkscape:cx="62.428266"
     inkscape:cy="336.51808"
     inkscape:window-width="1920"
     inkscape:window-height="1011"
     inkscape:window-x="0"
     inkscape:window-y="0"
     inkscape:window-maximized="1"
     inkscape:current-layer="layer1" /><defs
     id="defs2" /><g
     inkscape:label="Capa 1"
     inkscape:groupmode="layer"
     id="layer1"
     transform="translate(-254.63743,4.1754792)"><path
       id="path963"
       style="fill:#ffffff;stroke:none;stroke-width:0.279655"
       d="M 320.06836,-4.1679688 C 300.4346,-3.5537093 281.0547,6.027297 268.99591,21.649758 260.5927,32.466267 255.63703,45.918643 254.7847,59.556312 c -0.64545,9.709773 0.83117,19.64181 4.42044,28.666358 1.24834,3.218521 2.88923,6.392318 4.52924,9.476549 0.77808,1.876776 -0.43035,3.747621 -0.8254,5.558851 -2.54583,8.87828 -4.85155,17.81415 -6.19414,26.96459 2.51949,0.50817 4.93076,-0.67947 7.33008,-1.125 8.35597,-1.97497 16.65897,-4.15146 24.91211,-6.49805 9.60984,5.56331 20.66844,8.51729 31.71276,8.76925 14.05505,0.38839 28.29916,-3.61313 39.97176,-11.54193 10.7752,-7.18844 19.34469,-17.66636 24.4034,-29.625601 2.3252,-5.42728 3.87872,-11.002383 4.71286,-16.838048 1.0467,-7.686199 0.71152,-15.587111 -0.72584,-23.205318 C 386.88278,38.781889 381.81834,27.963127 374.15801,19.247649 363.94665,7.5519334 349.66554,-0.45458959 334.34126,-3.1260136 c -4.72318,-0.84949 -9.46319,-1.0979636 -14.2729,-1.0419552 z" /><g
       id="g975"
       transform="translate(87.784868,-99.438419)"><path
         style="fill:#ffffff;fill-opacity:1;stroke:#40c251;stroke-width:0.264583"
         d="m 232.38059,118.12106 c 2.92471,-0.23434 4.81489,0.94184 6.35,1.63372 3.54568,1.59861 5.91503,3.89096 7.95867,6.01398 1.07182,1.11337 1.84891,2.16879 2.9546,4.38573 1.09828,2.20187 2.75537,6.9014 4.09072,9.52474 0.43736,0.8591 1.25148,1.59041 1.92961,2.19234 1.91055,1.69624 1.58115,2.02618 3.7039,2.83104 1.1385,0.43153 2.73288,0.97314 3.96875,1.43933 2.6752,1.00912 8.52593,3.55415 10.31875,4.45082 1.35625,0.67813 2.04152,1.03082 2.91042,1.81451 2.22408,2.00581 4.71566,4.34711 6.52145,7.64514 0.82629,1.50865 2.01295,3.83725 2.15423,6.35 0.0947,1.68381 -0.41777,3.46763 -0.6731,5.02708 -0.37068,2.26298 -0.48445,3.17791 -1.09193,5.82084 -0.60643,2.63789 -1.25704,6.30343 -2.37623,8.99583 -0.8247,1.98464 -1.88409,3.91768 -3.48006,5.55625 -2.6326,2.70325 -5.50492,5.04666 -8.99186,6.27142 -2.22012,0.77972 -4.15714,1.11416 -6.61459,1.69677 -3.54885,0.84111 -6.13833,1.34832 -8.73125,1.74863 -1.62269,0.25056 -3.23876,0.53472 -5.55625,0.83106 -1.64994,0.21087 -4.09045,0.49689 -5.82083,0.21405 -7.13554,-1.16576 -11.57287,-4.13835 -18.78541,-7.5909 -3.65443,-1.74969 -8.60002,-1.45441 -11.84672,-3.72295 -2.1717,-1.51712 -3.05541,-7.82188 -3.80206,-10.296 -0.72761,-2.41141 -3.13505,-5.49804 -4.36854,-7.40833 -2.09761,-3.24908 -3.5492,-6.33968 -4.65611,-9.78958 -0.32798,-1.02235 -0.98462,-3.49436 -1.05751,-4.7625 -0.0955,-1.66159 0.17208,-3.75947 0.34422,-5.29167 0.43347,-3.85868 0.76142,-5.72532 1.62708,-10.05417 0.66495,-3.32501 1.10522,-6.13595 2.28897,-9.26041 1.0705,-2.82549 2.6916,-5.07418 4.69053,-7.40834 1.9095,-2.22911 3.5732,-3.68538 6.1968,-4.61936 1.52903,-0.54424 2.89825,-0.83502 4.49792,-1.23507 7.62953,-1.90738 7.82399,-2.40133 15.34583,-3.004 m -21.69583,73.15218 c -5.50651,5.50651 -13.37188,13.37178 -19.84375,19.84375"
         id="path304" /><path
         style="fill:#40c251;stroke:none;stroke-width:0.264583"
         d="m 183.13549,215.39612 c 4.88135,-1.11892 9.69621,-2.5736 14.55208,-3.80312 1.92458,-0.48736 4.34975,-1.6547 6.35,-1.51977 1.7182,0.11589 3.76767,1.86611 5.29167,2.64848 3.26813,1.67773 6.76328,3.08875 10.31875,4.02802 16.32082,4.31112 33.79496,1.53749 47.625,-8.34575 6.849,-4.89479 12.43779,-11.30274 16.48512,-18.67244 3.61368,-6.58019 6.12326,-14.15891 6.54289,-21.69583 0.61859,-11.10589 -1.07315,-21.84876 -6.44102,-31.75 -16.14567,-29.78237 -56.17739,-38.052394 -82.99741,-17.69258 -6.13066,4.65391 -11.33504,10.65307 -14.9996,17.428 -7.07707,13.08417 -8.99551,28.83931 -4.57282,43.12708 1.1701,3.7801 2.74688,7.33636 4.55957,10.84791 0.77837,1.50786 2.51981,3.30994 2.65848,5.02709 0.14565,1.8034 -0.97589,4.08437 -1.43457,5.82083 -1.27839,4.83976 -2.92389,9.6512 -3.93814,14.55208 m 27.78125,-83.53186 c 7.17999,-0.93531 8.37274,5.90629 10.53041,11.30061 0.75459,1.88622 2.49449,4.53205 1.95713,6.61459 -0.54901,2.12725 -2.22092,3.92853 -3.60469,5.55625 -0.69373,0.81571 -1.82695,1.73143 -1.7653,2.91041 0.0683,1.3007 1.2745,2.66621 1.96639,3.70417 1.9804,2.97048 4.23492,5.70442 6.79106,8.19812 4.08331,3.98356 9.59194,7.75996 15.08125,9.49986 4.74186,1.50336 6.14891,-8.57964 10.58333,-8.40766 3.8518,0.14922 8.76617,3.62479 12.17083,5.32712 1.29514,0.64743 3.1795,1.22634 3.88461,2.59185 0.70168,1.35917 0.20506,3.33375 -0.0918,4.75113 -1.13135,5.40067 -5.39802,9.17019 -10.67196,10.65053 -6.07246,1.70445 -12.85346,-0.51408 -18.52084,-2.66223 -15.24529,-5.77877 -27.97783,-17.8316 -35.51131,-32.32997 -3.67665,-7.07575 -4.61592,-15.98321 0.25453,-22.75416 1.7981,-2.49952 3.78301,-4.5384 6.94637,-4.95062 z"
         id="path302" /></g></g></svg>
